<svg width="256" height="256" viewBox="0 0 256 256" fill="none" xmlns="http://www.w3.org/2000/svg">
<path d="M133.285 246C139.523 243.319 140.725 241.164 139.147 235.258C135.3 220.855 131.328 206.489 127.319 192.133C126.749 190.096 126.704 189.16 129.235 188.519C154.58 182.093 179.817 175.23 205.215 169.032C224.935 164.215 230.786 147.314 226.816 132.33C217.32 96.4807 207.426 60.7386 197.575 24.9836C196.143 19.7838 193.412 15.2316 188.583 12.2951C188.31 12.1273 188.137 11.7895 187.89 11.4991C188.632 10.7268 189.483 11.0817 190.221 11.0796C197.065 11.0452 203.909 11.0538 210.75 11.0602C228.599 11.0774 239.199 19.4891 243.311 36.8396C244.189 40.5463 244.372 44.2831 244.409 48.0759C244.826 90.4506 245.319 132.827 245.758 175.202C245.89 187.798 245.924 200.396 246 212.992C246.019 216.34 245.472 219.618 244.744 222.869C242.824 231.464 237.408 237.035 229.531 240.538C222.603 243.618 215.277 245.047 207.796 245.357C183.229 246.381 158.642 245.757 133.285 246Z" fill="#1b396d"/>
<mask id="mask0_895_48" style="mask-type:luminance" maskUnits="userSpaceOnUse" x="10" y="11" width="135" height="235">
<path d="M10 11.5371H144.843V245.886H10V11.5371Z" fill="white"/>
</mask>
<g mask="url(#mask0_895_48)">
<path d="M85.2006 245.874C71.1742 245.874 57.3849 245.859 43.5957 245.887C41.3208 245.891 39.1042 245.561 36.9135 245.029C22.7318 241.597 14.7903 232.469 13.3241 217.523C12.1877 205.903 12.4961 194.221 12.2891 182.567C11.4826 137.352 10.7775 92.135 10.0164 46.9199C9.95168 43.0531 10.0509 39.2077 10.8271 35.4053C13.4146 22.7341 22.4148 16.833 34.0241 13.7902C37.1593 12.9684 40.4174 12.7151 43.6712 12.6787C76.3988 12.3182 109.124 11.9555 141.852 11.6165C142.788 11.6057 143.786 11.301 144.843 11.962C144.342 13.0714 143.297 13.0349 142.425 13.2645C107.19 22.5302 71.9547 31.7939 36.7194 41.0553C33.1443 41.9952 31.9843 43.5509 32.6376 47.3147C33.8926 54.5613 36.0876 61.5889 37.9787 68.6831C53.5166 126.932 69.0934 185.172 84.6529 243.415C84.8362 244.104 84.9634 244.805 85.2006 245.874Z" fill="#1b396d"/>
</g>
<path d="M96.0178 82.1354C95.9875 78.3344 97.3513 76.0746 100.358 75.2236C113.468 71.5224 126.53 67.6475 139.772 64.4348C141.562 64.0006 143.354 63.9203 145.154 64.0679C148.286 64.3262 150.116 65.8176 150.966 68.861C156.295 87.9618 161.739 107.034 166.282 126.348C166.654 127.928 166.929 129.563 166.989 131.18C167.162 135.795 165.286 138.42 160.989 139.622C148.999 142.974 137.064 146.536 124.925 149.326C123.522 149.647 122.083 149.914 120.65 149.983C116.228 150.201 113.567 148.279 112.439 144.133C107.185 124.824 101.944 105.508 96.7094 86.1904C96.3311 84.7946 95.9075 83.3945 96.0178 82.1354Z" fill="#1b396d"/>
</svg>
